HIERARCHY
ROOT Hips
{
  OFFSET 11.9452 101.033 232.571
  CHANNELS 6 Xposition Yposition Zposition Zrotation Xrotation Yrotation
  JOINT RightUpLeg
  {
    OFFSET -8.9458 -8.66707 0.101652
    CHANNELS 3 Zrotation Xrotation Yrotation
    JOINT RightLeg
    {
      OFFSET 0 -44.4227 1.3727
      CHANNELS 3 Zrotation Xrotation Yrotation
      JOINT RightFoot
      {
        OFFSET 0.253549 -42.0924 -1.46059
        CHANNELS 3 Zrotation Xrotation Yrotation
        JOINT RightToes
        {
          OFFSET 0.04 -4.41509 8.4991
          CHANNELS 3 Zrotation Xrotation Yrotation
          End Site
          {
            OFFSET -0.08 -0.137448 9.77979
          }
        }
      }
    }
  }
  JOINT Spine
  {
    OFFSET 0 11.8905 0
    CHANNELS 3 Zrotation Xrotation Yrotation
    JOINT Spine1
    {
      OFFSET 0 25.6574 0.127663
      CHANNELS 3 Zrotation Xrotation Yrotation
      JOINT HEad
      {
        OFFSET 0 8.73416 0.011341
        CHANNELS 3 Zrotation Xrotation Yrotation
        End Site
        {
          OFFSET -0.29 12.7742 2.51395
        }
      }
      JOINT LeftShoulder1
      {
        OFFSET 8.99 -0.362252 -0.22
        CHANNELS 3 Zrotation Xrotation Yrotation
        JOINT LeftArm
        {
          OFFSET 10.2827 -0.00338 0.322123
          CHANNELS 3 Zrotation Xrotation Yrotation
          JOINT LeftForeArm
          {
            OFFSET 32.7669 0.099144 -1.42434
            CHANNELS 3 Zrotation Xrotation Yrotation
            JOINT LeftHand
            {
              OFFSET 27.5643 0.085362 1.02216
              CHANNELS 3 Zrotation Xrotation Yrotation
              End Site
              {
                OFFSET 16.7443 -0.6 1.50291
              }
            }
          }
        }
      }
      JOINT RightShoulder
      {
        OFFSET -8.99 -0.362252 -0.22
        CHANNELS 3 Zrotation Xrotation Yrotation
        JOINT RightArm
        {
          OFFSET -10.2827 -0.00338 0.322123
          CHANNELS 3 Zrotation Xrotation Yrotation
          JOINT RightForeArm
          {
            OFFSET -32.8971 0.099144 -1.42434
            CHANNELS 3 Zrotation Xrotation Yrotation
            JOINT RightHand
            {
              OFFSET -27.4921 0.085362 1.02216
              CHANNELS 3 Zrotation Xrotation Yrotation
              End Site
              {
                OFFSET -16.6312 -0.6 1.50291
              }
            }
          }
        }
      }
    }
  }
  JOINT LeftUpLeg
  {
    OFFSET 8.9458 -8.66707 0.101652
    CHANNELS 3 Zrotation Xrotation Yrotation
    JOINT LeftLeg
    {
      OFFSET 0 -44.4227 1.3727
      CHANNELS 3 Zrotation Xrotation Yrotation
      JOINT LeftFoot
      {
        OFFSET -0.253549 -42.0924 -1.46059
        CHANNELS 3 Zrotation Xrotation Yrotation
        JOINT LeftToes
        {
          OFFSET -0.04 -4.41509 8.4991
          CHANNELS 3 Zrotation Xrotation Yrotation
          End Site
          {
            OFFSET 0.08 -0.047448 9.77979
          }
        }
      }
    }
  }
}
MOTION
Frames:	20
Frame Time:	0.0166667
8.89744 101.916 56.4911 -5.20052 3.26281 167.881 -3.77941 5.96651 -11.739 -16.2103 36.5879 7.40491 2.64462 -0.718358 -0.213419 -6.78835 1.63015 14.5425 1.40931 3.56709 -0.184245 -1.77709 -4.54201 0.175413 -6.7312 6.07052 11.1796 0 0 -0 -70.4628 -58.4513 32.2311 -20.0218 16.6763 -24.5577 0.368473 9.90896 -0.00117926 -16.7434 -0.968555 12.0466 118.497 -25.1991 26.1444 7.06236 13.4492 15.565 -0.369625 9.91382 0.00119885 -6.79788 -14.7471 -7.61479 -4.26542 10.972 24.2398 -2.44665 -0.711415 0.0976042 -1.49735 -6.3694 30.6159 
8.57241 101.982 54.7539 -5.66829 3.40258 167.897 -4.91726 4.1825 -12.3317 -17.9775 39.867 8.47185 3.25767 3.01234 -0.291532 -9.81207 4.08111 18.9886 0.824354 3.71579 -0.12383 -1.85879 -4.47432 0.186588 -6.98322 5.88601 11.217 -0 0 1.59028e-015 -72.2314 -58.0402 30.0531 -20.0477 16.8746 -25.6443 0.368473 9.90896 -0.00117926 -17.0074 -0.997332 11.932 118.671 -26.6362 25.1021 6.66264 13.3346 14.9121 -0.369625 9.91382 0.00119885 -7.88982 -14.0184 -7.41865 -4.36286 11.9565 22.7647 -2.518 -2.53745 0.0649733 -1.74004 -4.9628 33.6721 
8.27522 101.952 53.1797 -6.26996 3.55199 167.56 -5.94687 1.87457 -12.191 -19.9945 43.5748 10.7691 2.88681 7.47938 -0.343013 -10.1704 5.92123 18.5097 -0.0411857 3.91262 -0.0108154 -2.07446 -4.24433 0.199818 -7.04562 5.46963 11.5359 -1.19271e-015 -3.97569e-016 -1.59028e-015 -74.0882 -57.4399 27.8324 -20.1744 17.1517 -27.017 0.368473 9.90896 -0.00117926 -17.115 -0.996886 11.7141 118.926 -27.7095 24.5059 6.10316 13.1873 13.9412 -0.369625 9.91382 0.00119885 -8.9716 -13.4171 -7.70119 -4.50049 12.7318 22.9772 -2.56404 -3.97329 0.0464455 -1.88756 -4.14132 34.7077 
8.02067 101.879 51.6956 -6.85106 3.67467 167.094 -6.7117 -0.759624 -11.3064 -22.2771 47.5637 13.0073 2.21773 11.2953 -0.3688 -9.20834 7.27366 16.083 -0.912638 4.08504 0.0950183 -2.39394 -3.92826 0.211908 -6.90978 4.91608 11.9604 1.98785e-016 0 -3.18055e-015 -75.9816 -56.661 25.4044 -20.3067 17.4413 -28.4691 0.368473 9.90896 -0.00117926 -17.0168 -0.964531 11.4111 119.122 -28.5618 24.1024 5.54922 13.0426 12.8625 -0.369625 9.91382 0.00119885 -9.94773 -12.8915 -7.88165 -4.56187 13.3817 23.7775 -2.56352 -5.10919 0.0373273 -1.88782 -3.86599 34.1384 
7.83765 101.794 50.2506 -7.32252 3.72767 166.658 -6.95163 -3.61211 -9.31832 -24.1512 52.0593 13.3661 1.79222 12.7711 -0.342274 -7.9659 7.96194 13.4068 -1.50533 4.12663 0.112076 -2.94395 -3.58578 0.216613 -6.41258 4.25978 12.4047 -2.98177e-016 3.97569e-016 -0 -77.7025 -55.6169 22.6907 -20.3958 17.7266 -29.865 0.368473 9.90896 -0.00117926 -16.5396 -0.880645 11.0707 119.136 -29.2599 23.7749 5.10713 12.9337 11.8093 -0.369625 9.91382 0.00119885 -10.7515 -12.4579 -7.39908 -4.32102 13.9173 24.7422 -2.4579 -5.64175 0.0488796 -1.64169 -4.88671 30.7503 
7.70623 101.716 48.8307 -7.64914 3.75773 166.308 -6.70173 -6.49684 -6.84147 -25.4389 56.4885 12.6508 1.38411 12.9206 -0.291099 -6.61098 8.25373 10.7187 -1.97508 4.13126 0.107857 -3.47027 -3.20948 0.219746 -5.87512 3.61554 12.7099 -1.49089e-016 -1.98785e-016 -0 -79.478 -54.4351 19.5693 -20.3752 17.9027 -30.8697 0.368473 9.90896 -0.00117926 -15.8731 -0.769125 10.5921 118.914 -29.9155 23.3366 4.86435 12.8634 10.9074 -0.369625 9.91382 0.00119885 -11.3716 -12.0024 -6.80081 -4.0924 14.445 25.4346 -2.44776 -6.1956 0.0531918 -1.52014 -5.93796 27.6278 
7.62351 101.684 47.4084 -7.71341 3.82237 166.163 -6.05929 -9.10426 -4.29301 -25.9642 60.2818 10.9024 0.978048 11.983 -0.238374 -5.82869 8.63015 9.06121 -2.38221 4.17678 0.130951 -3.7055 -2.76042 0.226313 -5.663 3.0972 12.6282 1.49089e-016 0 -1.59028e-015 -81.5482 -53.2067 15.7623 -20.1418 17.8461 -31.0397 0.368473 9.90896 -0.00117926 -15.1731 -0.645442 9.8126 118.345 -30.6234 22.5585 4.97231 12.8526 10.3325 -0.369625 9.91382 0.00119885 -11.6923 -11.3887 -6.457 -4.17787 15.1728 24.9706 -2.83473 -7.50934 0.0146438 -1.56792 -5.45044 28.4748 
7.56723 101.668 45.973 -7.67065 3.84645 166.2 -5.14892 -11.5696 -1.86935 -25.6375 63.3869 8.70841 0.506358 10.5933 -0.179499 -5.07882 8.37952 7.74991 -2.7301 4.20465 0.156597 -3.81624 -2.39281 0.232471 -5.52424 2.73283 12.3382 4.96962e-017 0 -0 -83.6623 -51.8355 11.6193 -19.7985 17.6464 -30.5544 0.368473 9.90896 -0.00117926 -14.3671 -0.514724 8.96543 117.402 -31.5037 21.4234 5.35159 12.8893 10.0672 -0.369625 9.91382 0.00119885 -11.9158 -10.7132 -6.33046 -4.29236 15.8691 24.2565 -3.26403 -8.93774 -0.0330537 -1.67631 -4.67985 30.2133 
7.51024 101.655 44.4854 -7.65961 3.74354 166.502 -4.24829 -13.9379 -0.0626088 -25.0324 65.535 7.54264 -0.248225 9.65753 -0.104292 -3.90738 6.55439 6.27548 -3.04107 4.17291 0.17557 -3.88967 -2.34309 0.235293 -5.29073 2.66182 11.8983 -1.98785e-016 9.93923e-017 3.18055e-015 -85.6679 -50.2667 7.36101 -19.3986 17.3005 -29.3227 0.368473 9.90896 -0.00117926 -13.3634 -0.382933 8.25785 115.864 -32.8353 19.7083 6.02145 12.9719 10.2065 -0.369625 9.91382 0.00119885 -12.2451 -10.0217 -6.64233 -4.27892 16.2907 24.0325 -3.41488 -10.0247 -0.0641155 -1.72457 -4.37938 30.7957 
7.46423 101.634 43.0042 -7.60852 3.60338 166.875 -3.23356 -16.2167 1.52942 -24.3598 66.9531 6.88498 -0.863553 8.6009 -0.0495494 -2.92147 4.30011 5.19813 -3.31834 4.10971 0.189828 -3.89631 -2.32558 0.237007 -5.041 2.67126 11.4189 -1.86361e-016 0 1.59028e-015 -87.622 -48.596 3.01567 -18.9072 16.8742 -27.7317 0.368473 9.90896 -0.00117926 -12.3846 -0.265201 7.60515 114.083 -34.227 17.7453 6.82568 13.083 10.5917 -0.369625 9.91382 0.00119885 -12.5329 -9.33013 -6.98193 -4.19629 16.6318 23.935 -3.47528 -10.9415 -0.0890294 -1.71551 -4.44687 30.8242 
7.42679 101.59 41.5925 -7.48473 3.50952 167.102 -1.94385 -18.4408 3.24115 -23.8594 67.7959 6.64856 -0.838044 7.11537 -0.0644865 -2.44156 2.35321 5.01894 -3.57116 4.02992 0.200945 -3.81402 -2.05471 0.239425 -4.84425 2.56904 11.0627 -7.60973e-017 0 -0 -89.7251 -46.9521 -1.52057 -18.328 16.4551 -26.0704 0.368473 9.90896 -0.00117926 -11.7299 -0.188908 6.99855 112.509 -35.2999 15.8645 7.62005 13.2086 11.1385 -0.369625 9.91382 0.00119885 -12.7211 -8.66797 -6.92165 -3.99363 17.0186 23.8816 -3.54308 -11.6424 -0.108663 -1.61244 -5.23974 29.9244 
7.41306 101.535 40.1985 -7.31786 3.39689 167.338 -0.562876 -20.5647 4.81172 -23.2942 67.9731 6.42667 -0.636611 5.30674 -0.100567 -2.29215 1.06147 5.29681 -3.80396 3.93147 0.20086 -3.70829 -1.76649 0.240885 -4.57434 2.42999 10.7338 -1.2424e-017 9.93923e-017 -3.18055e-015 -91.6573 -45.2388 -5.83739 -17.6691 16.0485 -24.5223 0.368473 9.90896 -0.00117926 -11.0803 -0.123444 6.41736 110.897 -36.2988 13.9716 8.38761 13.3347 11.7195 -0.369625 9.91382 0.00119885 -12.8188 -8.03416 -6.74552 -3.81305 17.4207 23.7691 -3.56943 -12.3225 -0.126171 -1.52385 -6.18575 28.9923 
7.44372 101.478 38.7895 -7.11471 3.2068 167.651 0.751203 -22.594 6.10177 -22.4319 67.456 5.71424 -0.594383 2.80421 -0.124304 -2.8277 1.88281 6.04494 -4.03228 3.81238 0.185992 -3.61873 -1.64701 0.240192 -4.09712 2.27822 10.4297 2.75869e-033 9.93923e-017 -1.59028e-015 -93.2262 -43.5292 -9.55904 -16.9209 15.7107 -23.3937 0.368473 9.90896 -0.00117926 -10.199 -0.0426686 5.88241 109.103 -37.3798 12.0465 9.06934 13.449 12.2022 -0.369625 9.91382 0.00119885 -12.7714 -7.46999 -6.5819 -3.82027 17.8754 23.4499 -3.54225 -13.2335 -0.148113 -1.48979 -6.63127 28.9721 
7.49966 101.414 37.3702 -6.90446 3.00167 168.08 1.96047 -24.4484 7.02843 -21.3342 66.1907 4.58664 -0.586915 0.729563 -0.141891 -3.06364 2.18887 6.41706 -4.23242 3.6872 0.144501 -3.60068 -1.56038 0.237723 -3.5056 2.07367 10.0329 4.96962e-017 0 -0 -94.4695 -41.6805 -12.847 -16.2078 15.4438 -22.5882 0.368473 9.90896 -0.00117926 -9.13423 0.0401407 5.26044 107.191 -38.4503 10.1635 9.65681 13.5394 12.5159 -0.369625 9.91382 0.00119885 -12.6812 -6.88112 -6.46482 -3.87625 18.3104 22.9694 -3.45118 -14.1591 -0.165614 -1.45697 -7.06514 29.3168 
7.57595 101.336 35.932 -6.73235 2.82747 168.748 2.93386 -26.0557 7.36334 -20.0474 64.0585 2.83908 -0.586298 0.526973 -0.145186 -1.65475 -1.39438 5.17831 -4.39095 3.57791 0.0501566 -3.7899 -1.42456 0.232964 -2.80105 1.75491 9.34962 -3.23025e-016 0 1.59028e-015 -95.2337 -39.4577 -15.6927 -15.663 15.2688 -22.1266 0.368473 9.90896 -0.00117926 -7.7384 0.126545 4.33333 105.111 -39.4543 8.39334 10.1428 13.5892 12.5017 -0.369625 9.91382 0.00119885 -12.6464 -6.18505 -6.51892 -3.90345 18.6902 22.2543 -3.26536 -14.9682 -0.170543 -1.39696 -7.83728 29.8753 
7.6508 101.261 34.4818 -6.55777 2.6746 169.473 3.71627 -27.4149 7.34971 -18.888 61.1945 1.26544 -0.63118 0.858483 -0.142689 -0.197086 -5.18313 3.53876 -4.49309 3.46016 -0.0574365 -3.98463 -1.26402 0.227403 -2.13912 1.40714 8.60627 9.93923e-017 -1.98785e-016 1.59028e-015 -95.7028 -37.1979 -18.1201 -15.235 15.1663 -21.9666 0.368473 9.90896 -0.00117926 -6.35983 0.198315 3.3764 103.113 -40.4535 6.76042 10.4677 13.6027 12.2902 -0.369625 9.91382 0.00119885 -12.6114 -5.38931 -6.60111 -3.89363 18.934 21.513 -3.03153 -15.6556 -0.166514 -1.31244 -8.72784 30.4296 
7.69259 101.206 33.0199 -6.34566 2.56288 170.087 4.37394 -28.468 7.20905 -17.8145 57.7077 0.325874 -0.814391 0.727278 -0.139902 0.499332 -5.97493 2.19831 -4.50738 3.30968 -0.141303 -3.98166 -1.05413 0.222487 -1.71236 1.10047 7.99666 -1.98785e-016 0 -0 -96.0972 -35.1711 -20.1583 -14.9075 15.1197 -22.1024 0.368473 9.90896 -0.00117926 -5.36766 0.23059 2.61924 101.499 -41.5275 5.35233 10.5109 13.568 11.941 -0.369625 9.91382 0.00119885 -12.5584 -4.44332 -6.5811 -3.80531 18.907 20.9743 -2.76323 -16.1202 -0.149814 -1.21665 -9.72297 30.5923 
7.72586 101.163 31.5581 -6.13407 2.45322 170.665 4.86136 -29.2818 6.83223 -16.8215 53.6527 -0.226128 -0.948972 0.554114 -0.137966 0.8065 -5.57596 1.3117 -4.46967 3.14824 -0.219831 -3.92116 -0.860202 0.217822 -1.384 0.824502 7.42297 4.22417e-016 1.98785e-016 -1.59028e-015 -96.3732 -33.2708 -21.8775 -14.6873 15.1233 -22.4506 0.368473 9.90896 -0.00117926 -4.56136 0.244286 1.98103 100.052 -42.5783 4.04831 10.4421 13.5136 11.5101 -0.369625 9.91382 0.00119885 -12.495 -3.43652 -6.54866 -3.69385 18.7377 20.515 -2.53003 -16.5178 -0.134454 -1.13285 -10.6068 30.7004 
7.76605 101.125 30.1191 -5.95673 2.30046 171.238 5.16016 -29.9245 6.09852 -15.9775 49.0433 -0.417904 -0.808499 0.516166 -0.140847 0.520459 -4.64546 1.5808 -4.42314 2.9848 -0.304053 -3.89073 -0.751793 0.213338 -1.07577 0.580513 6.82527 -9.93923e-017 0 -0 -96.4998 -31.429 -23.3338 -14.5743 15.1611 -22.9146 0.368473 9.90896 -0.00117926 -3.85235 0.252015 1.45747 98.6458 -43.4898 2.75902 10.415 13.4667 11.0558 -0.369625 9.91382 0.00119885 -12.4174 -2.4835 -6.52941 -3.57881 18.5381 20.1619 -2.44935 -16.9603 -0.137971 -1.08178 -11.1824 30.643 
7.80885 101.096 28.6701 -5.78453 2.14116 171.766 5.28072 -30.3231 5.27887 -14.9394 44.0892 -0.493308 -0.604343 0.34736 -0.145556 0.0734985 -3.46503 2.07752 -4.31417 2.8335 -0.37906 -3.84489 -0.691642 0.209488 -0.806059 0.403016 6.28377 -2.98177e-016 0 -0 -96.5579 -29.7708 -24.523 -14.5653 15.2417 -23.5304 0.368473 9.90896 -0.00117926 -3.26973 0.254176 1.04864 97.3198 -44.374 1.48003 10.359 13.4209 10.6296 -0.369625 9.91382 0.00119885 -12.3298 -1.45973 -6.58205 -3.50632 18.226 19.6891 -2.39274 -17.4782 -0.146582 -1.04225 -11.349 31.3497 
